# xmcd CD database file
#
# Track frame offsets:
#	150
#	4320
#	7065
#	23976
#	37545
#	54176
#	74088
#	93627
#	108053
#	126077
#	142320
#	144060
#	148531
#	161801
#	179859
#	190186
#
# Disc length: 2726 seconds
#
# Revision: 1
# Processed by: cddbd v1.5.2PL0 Copyright (c) Steve Scherf et al.
# Submitted via: CDex 1.50beta9
#
DISCID=e30aa410
DTITLE=Jack Dieval - Jazz aux Champs Elysees
DYEAR=1957
DGENRE=Jazz
TTITLE0=Indicatif
TTITLE1=Presentation des musiciens
TTITLE2=Jumpin' at the woodside
TTITLE3=Solitude
TTITLE4=Do not disturb
TTITLE5=The man I love
TTITLE6=In a mellow tone
TTITLE7=Rif hi-fi
TTITLE8=The nearness of you
TTITLE9=Blues for Polydor
TTITLE10=Outro
TTITLE11=Indicatif
TTITLE12=Learnin' the blues
TTITLE13=Tenderly
TTITLE14=Pour penser a toi
TTITLE15=Donne ta main et viens
EXTD=
EXTT0=
EXTT1=
EXTT2=
EXTT3=
EXTT4=
EXTT5=
EXTT6=
EXTT7=
EXTT8=
EXTT9=
EXTT10=
EXTT11=
EXTT12=
EXTT13=
EXTT14=
EXTT15=
PLAYORDER=
